<svg width="340" height="340" viewBox="0 0 340 340" fill="none" xmlns="http://www.w3.org/2000/svg">
<g clip-path="url(#clip0_94_39)">
<path d="M53.8851 102H319L291.263 238H26L53.8851 102Z" fill="#00E861"/>
<path d="M167.091 171.545C165.455 181.424 162.227 189.848 157.409 196.818C152.621 203.758 146.773 209.076 139.864 212.773C132.985 216.439 125.576 218.273 117.636 218.273C109.303 218.273 102.152 216.333 96.1818 212.455C90.2121 208.545 85.9091 202.955 83.2727 195.682C80.6667 188.409 80.2121 179.682 81.9091 169.5C83.5455 159.652 86.7576 151.227 91.5455 144.227C96.3333 137.227 102.197 131.879 109.136 128.182C116.076 124.485 123.561 122.636 131.591 122.636C139.864 122.636 146.955 124.591 152.864 128.5C158.803 132.379 163.076 137.97 165.682 145.273C168.318 152.576 168.788 161.333 167.091 171.545ZM150.5 169.5C151.621 162.621 151.515 156.818 150.182 152.091C148.879 147.364 146.561 143.803 143.227 141.409C139.894 138.985 135.788 137.773 130.909 137.773C125.636 137.773 120.758 139.091 116.273 141.727C111.818 144.333 108.03 148.152 104.909 153.182C101.818 158.212 99.697 164.333 98.5455 171.545C97.3333 178.455 97.4091 184.258 98.7727 188.955C100.136 193.652 102.5 197.197 105.864 199.591C109.227 201.955 113.333 203.136 118.182 203.136C123.424 203.136 128.273 201.833 132.727 199.227C137.182 196.621 140.955 192.818 144.045 187.818C147.167 182.818 149.318 176.712 150.5 169.5ZM267.443 123.909L251.989 217H236.989L203.67 153.591H202.943L192.352 217H175.489L190.943 123.909H206.034L239.307 187.364H240.17L250.67 123.909H267.443Z" fill="black"/>
</g>
<defs>
<clipPath id="clip0_94_39">
<rect width="340" height="340" fill="white"/>
</clipPath>
</defs>
</svg>
